<mxfile host="app.diagrams.net" agent="Mozilla/5.0 (Windows NT 10.0; Win64; x64) AppleWebKit/537.36 (KHTML, like Gecko) Chrome/140.0.0.0 Safari/537.36" version="28.2.6" pages="2">
  <diagram name="Fig1" id="-1gzF2Dyj5mBQXq9cQPM">
    <mxGraphModel dx="719" dy="363" grid="1" gridSize="10" guides="1" tooltips="1" connect="1" arrows="1" fold="1" page="1" pageScale="1" pageWidth="850" pageHeight="1100" math="1" shadow="0">
      <root>
        <mxCell id="0" />
        <mxCell id="1" parent="0" />
        <mxCell id="sUr1qKokxM94UTDC0hcx-146" value="" style="rounded=0;whiteSpace=wrap;html=1;container=0;fillColor=none;" parent="1" vertex="1">
          <mxGeometry x="184" y="108" width="91" height="153" as="geometry" />
        </mxCell>
        <mxCell id="sUr1qKokxM94UTDC0hcx-99" value="" style="rounded=0;whiteSpace=wrap;html=1;container=0;fillColor=none;" parent="1" vertex="1">
          <mxGeometry x="291" y="107" width="91" height="153" as="geometry" />
        </mxCell>
        <mxCell id="sUr1qKokxM94UTDC0hcx-92" value="" style="rounded=0;whiteSpace=wrap;html=1;container=0;fillColor=none;" parent="1" vertex="1">
          <mxGeometry x="513" y="107" width="140" height="153" as="geometry" />
        </mxCell>
        <mxCell id="WS8m4a5kr1yiGVBsjtW7-3" value="&lt;font style=&quot;font-size: 22px;&quot;&gt;seed&lt;/font&gt;" style="ellipse;whiteSpace=wrap;html=1;strokeWidth=1;fontFamily=Arial Narrow;" parent="1" vertex="1">
          <mxGeometry x="191" y="170" width="72" height="37" as="geometry" />
        </mxCell>
        <mxCell id="sPPq37ELEt1q1rfpjTLL-28" value="" style="endArrow=classic;html=1;rounded=0;" parent="1" edge="1">
          <mxGeometry width="50" height="50" relative="1" as="geometry">
            <mxPoint x="382" y="199.83" as="sourcePoint" />
            <mxPoint x="412" y="200" as="targetPoint" />
          </mxGeometry>
        </mxCell>
        <mxCell id="sPPq37ELEt1q1rfpjTLL-29" value="" style="endArrow=classic;html=1;rounded=0;exitX=1.021;exitY=0.53;exitDx=0;exitDy=0;exitPerimeter=0;" parent="1" source="sUr1qKokxM94UTDC0hcx-99" edge="1">
          <mxGeometry width="50" height="50" relative="1" as="geometry">
            <mxPoint x="377" y="195" as="sourcePoint" />
            <mxPoint x="407" y="160" as="targetPoint" />
          </mxGeometry>
        </mxCell>
        <mxCell id="sPPq37ELEt1q1rfpjTLL-30" value="" style="endArrow=classic;html=1;rounded=0;exitX=1.013;exitY=0.674;exitDx=0;exitDy=0;exitPerimeter=0;" parent="1" source="sUr1qKokxM94UTDC0hcx-99" edge="1">
          <mxGeometry width="50" height="50" relative="1" as="geometry">
            <mxPoint x="377" y="204" as="sourcePoint" />
            <mxPoint x="407" y="240" as="targetPoint" />
          </mxGeometry>
        </mxCell>
        <mxCell id="sUr1qKokxM94UTDC0hcx-45" value="" style="group" parent="1" vertex="1" connectable="0">
          <mxGeometry x="410" y="224" width="85" height="48" as="geometry" />
        </mxCell>
        <mxCell id="sPPq37ELEt1q1rfpjTLL-22" value="" style="group" parent="sUr1qKokxM94UTDC0hcx-45" vertex="1" connectable="0">
          <mxGeometry y="3" width="77" height="43" as="geometry" />
        </mxCell>
        <mxCell id="sPPq37ELEt1q1rfpjTLL-23" value="" style="endArrow=classic;html=1;rounded=0;endSize=3;" parent="sPPq37ELEt1q1rfpjTLL-22" edge="1">
          <mxGeometry width="50" height="50" relative="1" as="geometry">
            <mxPoint x="4.033333333333335" y="30.000000000000007" as="sourcePoint" />
            <mxPoint x="4.033333333333335" as="targetPoint" />
          </mxGeometry>
        </mxCell>
        <mxCell id="sPPq37ELEt1q1rfpjTLL-24" value="" style="endArrow=classic;html=1;rounded=0;endSize=3;" parent="sPPq37ELEt1q1rfpjTLL-22" edge="1">
          <mxGeometry width="50" height="50" relative="1" as="geometry">
            <mxPoint y="26.5" as="sourcePoint" />
            <mxPoint x="77" y="26.5" as="targetPoint" />
          </mxGeometry>
        </mxCell>
        <mxCell id="sUr1qKokxM94UTDC0hcx-31" value="" style="endArrow=open;html=1;rounded=0;strokeColor=light-dark(#050505, #6FC76F);jumpSize=4;endSize=3;endFill=0;strokeWidth=1;" parent="sPPq37ELEt1q1rfpjTLL-22" edge="1">
          <mxGeometry width="50" height="50" relative="1" as="geometry">
            <mxPoint x="20" y="26" as="sourcePoint" />
            <mxPoint x="20" y="4" as="targetPoint" />
          </mxGeometry>
        </mxCell>
        <mxCell id="sUr1qKokxM94UTDC0hcx-34" value="" style="endArrow=open;html=1;rounded=0;strokeColor=light-dark(#787878, #6FC76F);jumpSize=4;endSize=3;endFill=0;strokeWidth=0.5;" parent="sPPq37ELEt1q1rfpjTLL-22" edge="1">
          <mxGeometry width="50" height="50" relative="1" as="geometry">
            <mxPoint x="15" y="26" as="sourcePoint" />
            <mxPoint x="15" y="10" as="targetPoint" />
            <Array as="points">
              <mxPoint x="15" y="10" />
            </Array>
          </mxGeometry>
        </mxCell>
        <mxCell id="sUr1qKokxM94UTDC0hcx-32" value="" style="endArrow=open;html=1;rounded=0;strokeColor=light-dark(#050505, #6FC76F);jumpSize=4;endSize=3;endFill=0;strokeWidth=1;" parent="sPPq37ELEt1q1rfpjTLL-22" edge="1">
          <mxGeometry width="50" height="50" relative="1" as="geometry">
            <mxPoint x="32" y="27" as="sourcePoint" />
            <mxPoint x="32" y="7" as="targetPoint" />
          </mxGeometry>
        </mxCell>
        <mxCell id="sUr1qKokxM94UTDC0hcx-35" value="" style="endArrow=open;html=1;rounded=0;strokeColor=light-dark(#050505, #6FC76F);jumpSize=4;endSize=3;endFill=0;strokeWidth=1;" parent="sPPq37ELEt1q1rfpjTLL-22" edge="1">
          <mxGeometry width="50" height="50" relative="1" as="geometry">
            <mxPoint x="44" y="26" as="sourcePoint" />
            <mxPoint x="44" y="-4" as="targetPoint" />
          </mxGeometry>
        </mxCell>
        <mxCell id="sUr1qKokxM94UTDC0hcx-36" value="" style="endArrow=open;html=1;rounded=0;strokeColor=light-dark(#787878, #6FC76F);jumpSize=4;endSize=3;endFill=0;strokeWidth=0.5;" parent="sPPq37ELEt1q1rfpjTLL-22" edge="1">
          <mxGeometry width="50" height="50" relative="1" as="geometry">
            <mxPoint x="49" y="26" as="sourcePoint" />
            <mxPoint x="49" y="4" as="targetPoint" />
          </mxGeometry>
        </mxCell>
        <mxCell id="sUr1qKokxM94UTDC0hcx-37" value="" style="endArrow=open;html=1;rounded=0;strokeColor=light-dark(#787878, #6FC76F);jumpSize=4;endSize=3;endFill=0;strokeWidth=0.5;" parent="sPPq37ELEt1q1rfpjTLL-22" edge="1">
          <mxGeometry width="50" height="50" relative="1" as="geometry">
            <mxPoint x="55" y="26" as="sourcePoint" />
            <mxPoint x="55" y="10" as="targetPoint" />
            <Array as="points">
              <mxPoint x="55" y="10" />
            </Array>
          </mxGeometry>
        </mxCell>
        <mxCell id="sUr1qKokxM94UTDC0hcx-39" value="" style="endArrow=open;html=1;rounded=0;strokeColor=light-dark(#050505, #6FC76F);jumpSize=4;endSize=3;endFill=0;strokeWidth=1;" parent="sPPq37ELEt1q1rfpjTLL-22" edge="1">
          <mxGeometry width="50" height="50" relative="1" as="geometry">
            <mxPoint x="10" y="27" as="sourcePoint" />
            <mxPoint x="10" y="5" as="targetPoint" />
          </mxGeometry>
        </mxCell>
        <mxCell id="SzlHStSngorwF01ydpwB-3" value="$$\omega$$" style="text;whiteSpace=wrap;align=center;verticalAlign=middle;fontSize=13;" parent="sPPq37ELEt1q1rfpjTLL-22" vertex="1">
          <mxGeometry x="47" y="22" width="30" height="20" as="geometry" />
        </mxCell>
        <mxCell id="sUr1qKokxM94UTDC0hcx-33" value="" style="endArrow=open;html=1;rounded=0;strokeColor=light-dark(#787878, #6FC76F);jumpSize=4;endSize=3;endFill=0;strokeWidth=0.5;" parent="sUr1qKokxM94UTDC0hcx-45" edge="1">
          <mxGeometry width="50" height="50" relative="1" as="geometry">
            <mxPoint x="38" y="29" as="sourcePoint" />
            <mxPoint x="38" y="17" as="targetPoint" />
          </mxGeometry>
        </mxCell>
        <mxCell id="sUr1qKokxM94UTDC0hcx-38" value="" style="endArrow=open;html=1;rounded=0;strokeColor=light-dark(#787878, #6FC76F);jumpSize=4;endSize=3;endFill=0;strokeWidth=0.5;" parent="sUr1qKokxM94UTDC0hcx-45" edge="1">
          <mxGeometry width="50" height="50" relative="1" as="geometry">
            <mxPoint x="61" y="30" as="sourcePoint" />
            <mxPoint x="61" y="8" as="targetPoint" />
          </mxGeometry>
        </mxCell>
        <mxCell id="sUr1qKokxM94UTDC0hcx-40" value="" style="endArrow=open;html=1;rounded=0;strokeColor=light-dark(#787878, #6FC76F);jumpSize=4;endSize=3;endFill=0;strokeWidth=0.5;" parent="sUr1qKokxM94UTDC0hcx-45" edge="1">
          <mxGeometry width="50" height="50" relative="1" as="geometry">
            <mxPoint x="26" y="29" as="sourcePoint" />
            <mxPoint x="26" y="17" as="targetPoint" />
          </mxGeometry>
        </mxCell>
        <mxCell id="sUr1qKokxM94UTDC0hcx-41" value="" style="endArrow=open;html=1;rounded=0;strokeColor=light-dark(#050505, #6FC76F);jumpSize=4;endSize=3;endFill=0;strokeWidth=1;" parent="sUr1qKokxM94UTDC0hcx-45" edge="1">
          <mxGeometry width="50" height="50" relative="1" as="geometry">
            <mxPoint x="67" y="30" as="sourcePoint" />
            <mxPoint x="67" as="targetPoint" />
            <Array as="points">
              <mxPoint x="67" y="20" />
              <mxPoint x="67" y="10" />
            </Array>
          </mxGeometry>
        </mxCell>
        <mxCell id="sUr1qKokxM94UTDC0hcx-46" value="" style="group" parent="1" vertex="1" connectable="0">
          <mxGeometry x="410" y="180" width="86" height="48" as="geometry" />
        </mxCell>
        <mxCell id="sPPq37ELEt1q1rfpjTLL-31" value="" style="group" parent="sUr1qKokxM94UTDC0hcx-46" vertex="1" connectable="0">
          <mxGeometry y="4" width="77" height="30" as="geometry" />
        </mxCell>
        <mxCell id="sPPq37ELEt1q1rfpjTLL-32" value="" style="endArrow=classic;html=1;rounded=0;endSize=3;" parent="sPPq37ELEt1q1rfpjTLL-31" edge="1">
          <mxGeometry width="50" height="50" relative="1" as="geometry">
            <mxPoint x="4.033333333333335" y="30.000000000000007" as="sourcePoint" />
            <mxPoint x="4.033333333333335" as="targetPoint" />
          </mxGeometry>
        </mxCell>
        <mxCell id="sPPq37ELEt1q1rfpjTLL-33" value="" style="endArrow=classic;html=1;rounded=0;endSize=3;" parent="sPPq37ELEt1q1rfpjTLL-31" edge="1">
          <mxGeometry width="50" height="50" relative="1" as="geometry">
            <mxPoint y="26.5" as="sourcePoint" />
            <mxPoint x="77" y="26.5" as="targetPoint" />
          </mxGeometry>
        </mxCell>
        <mxCell id="sUr1qKokxM94UTDC0hcx-23" value="" style="group;strokeWidth=0;strokeColor=none;" parent="sPPq37ELEt1q1rfpjTLL-31" vertex="1" connectable="0">
          <mxGeometry x="54" y="16" width="14" height="10" as="geometry" />
        </mxCell>
        <mxCell id="sUr1qKokxM94UTDC0hcx-24" value="" style="endArrow=open;html=1;rounded=0;strokeColor=light-dark(#050505, #6FC76F);jumpSize=4;endSize=2;endFill=0;strokeWidth=0.5;" parent="sUr1qKokxM94UTDC0hcx-23" edge="1">
          <mxGeometry width="50" height="50" relative="1" as="geometry">
            <mxPoint x="6.873124999999991" y="10" as="sourcePoint" />
            <mxPoint x="6.873124999999991" as="targetPoint" />
          </mxGeometry>
        </mxCell>
        <mxCell id="sUr1qKokxM94UTDC0hcx-25" value="" style="endArrow=open;html=1;rounded=0;strokeColor=light-dark(#757575, #FF0000);jumpSize=4;endSize=1;endFill=0;strokeWidth=0.5;" parent="sUr1qKokxM94UTDC0hcx-23" edge="1">
          <mxGeometry width="50" height="50" relative="1" as="geometry">
            <mxPoint x="9.113124999999993" y="10" as="sourcePoint" />
            <mxPoint x="9.113124999999993" y="3.333333333333333" as="targetPoint" />
          </mxGeometry>
        </mxCell>
        <mxCell id="sUr1qKokxM94UTDC0hcx-26" value="" style="endArrow=open;html=1;rounded=0;strokeColor=light-dark(#757575, #FF0000);jumpSize=4;endSize=1;endFill=0;strokeWidth=0.5;" parent="sUr1qKokxM94UTDC0hcx-23" edge="1">
          <mxGeometry width="50" height="50" relative="1" as="geometry">
            <mxPoint x="4.738124999999993" y="10" as="sourcePoint" />
            <mxPoint x="4.738124999999993" y="3.333333333333333" as="targetPoint" />
          </mxGeometry>
        </mxCell>
        <mxCell id="sUr1qKokxM94UTDC0hcx-27" value="" style="endArrow=open;html=1;rounded=0;strokeColor=light-dark(#757575, #FF0000);jumpSize=4;endSize=1;endFill=0;strokeWidth=0.5;" parent="sUr1qKokxM94UTDC0hcx-23" edge="1">
          <mxGeometry width="50" height="50" relative="1" as="geometry">
            <mxPoint x="11.375" y="10" as="sourcePoint" />
            <mxPoint x="11.375" y="6.333333333333333" as="targetPoint" />
          </mxGeometry>
        </mxCell>
        <mxCell id="sUr1qKokxM94UTDC0hcx-28" value="" style="endArrow=open;html=1;rounded=0;strokeColor=light-dark(#757575, #FF0000);jumpSize=4;endSize=1;endFill=0;strokeWidth=0.5;" parent="sUr1qKokxM94UTDC0hcx-23" edge="1">
          <mxGeometry width="50" height="50" relative="1" as="geometry">
            <mxPoint x="14" y="10" as="sourcePoint" />
            <mxPoint x="14" y="7.333333333333333" as="targetPoint" />
          </mxGeometry>
        </mxCell>
        <mxCell id="sUr1qKokxM94UTDC0hcx-29" value="" style="endArrow=open;html=1;rounded=0;strokeColor=light-dark(#757575, #FF0000);jumpSize=4;endSize=1;endFill=0;strokeWidth=0.5;" parent="sUr1qKokxM94UTDC0hcx-23" edge="1">
          <mxGeometry width="50" height="50" relative="1" as="geometry">
            <mxPoint x="2.625" y="10" as="sourcePoint" />
            <mxPoint x="2.625" y="6.333333333333333" as="targetPoint" />
          </mxGeometry>
        </mxCell>
        <mxCell id="sUr1qKokxM94UTDC0hcx-30" value="" style="endArrow=open;html=1;rounded=0;strokeColor=light-dark(#757575, #FF0000);jumpSize=4;endSize=1;endFill=0;strokeWidth=0.5;" parent="sUr1qKokxM94UTDC0hcx-23" edge="1">
          <mxGeometry width="50" height="50" relative="1" as="geometry">
            <mxPoint y="10" as="sourcePoint" />
            <mxPoint y="7.333333333333333" as="targetPoint" />
          </mxGeometry>
        </mxCell>
        <mxCell id="sUr1qKokxM94UTDC0hcx-7" value="" style="group;strokeWidth=0;strokeColor=none;" parent="sUr1qKokxM94UTDC0hcx-46" vertex="1" connectable="0">
          <mxGeometry x="7" y="10" width="20" height="20" as="geometry" />
        </mxCell>
        <mxCell id="sUr1qKokxM94UTDC0hcx-8" value="" style="endArrow=open;html=1;rounded=0;strokeColor=light-dark(#050505, #6FC76F);jumpSize=4;endSize=3;endFill=0;strokeWidth=0.5;" parent="sUr1qKokxM94UTDC0hcx-7" edge="1">
          <mxGeometry width="50" height="50" relative="1" as="geometry">
            <mxPoint x="9.818749999999987" y="20" as="sourcePoint" />
            <mxPoint x="9.818749999999987" as="targetPoint" />
          </mxGeometry>
        </mxCell>
        <mxCell id="sUr1qKokxM94UTDC0hcx-9" value="" style="endArrow=open;html=1;rounded=0;strokeColor=light-dark(#787878, #FF0000);jumpSize=4;endSize=2;endFill=0;strokeWidth=0.5;" parent="sUr1qKokxM94UTDC0hcx-7" edge="1">
          <mxGeometry width="50" height="50" relative="1" as="geometry">
            <mxPoint x="13.01874999999999" y="20" as="sourcePoint" />
            <mxPoint x="13.01874999999999" y="6.666666666666666" as="targetPoint" />
          </mxGeometry>
        </mxCell>
        <mxCell id="sUr1qKokxM94UTDC0hcx-10" value="" style="endArrow=open;html=1;rounded=0;strokeColor=light-dark(#707070, #FF0000);jumpSize=4;endSize=2;endFill=0;strokeWidth=0.5;" parent="sUr1qKokxM94UTDC0hcx-7" edge="1">
          <mxGeometry width="50" height="50" relative="1" as="geometry">
            <mxPoint x="6.76874999999999" y="20" as="sourcePoint" />
            <mxPoint x="6.76874999999999" y="6.666666666666666" as="targetPoint" />
          </mxGeometry>
        </mxCell>
        <mxCell id="sUr1qKokxM94UTDC0hcx-11" value="" style="endArrow=open;html=1;rounded=0;strokeColor=light-dark(#707070, #FF0000);jumpSize=4;endSize=2;endFill=0;strokeWidth=0.5;" parent="sUr1qKokxM94UTDC0hcx-7" edge="1">
          <mxGeometry width="50" height="50" relative="1" as="geometry">
            <mxPoint x="16.25" y="20" as="sourcePoint" />
            <mxPoint x="16.25" y="12.666666666666666" as="targetPoint" />
          </mxGeometry>
        </mxCell>
        <mxCell id="sUr1qKokxM94UTDC0hcx-12" value="" style="endArrow=open;html=1;rounded=0;strokeColor=light-dark(#707070, #FF0000);jumpSize=4;endSize=2;endFill=0;strokeWidth=0.5;" parent="sUr1qKokxM94UTDC0hcx-7" edge="1">
          <mxGeometry width="50" height="50" relative="1" as="geometry">
            <mxPoint x="20" y="20" as="sourcePoint" />
            <mxPoint x="20" y="14.666666666666666" as="targetPoint" />
          </mxGeometry>
        </mxCell>
        <mxCell id="sUr1qKokxM94UTDC0hcx-13" value="" style="endArrow=open;html=1;rounded=0;strokeColor=light-dark(#707070, #FF0000);jumpSize=4;endSize=2;endFill=0;strokeWidth=0.5;" parent="sUr1qKokxM94UTDC0hcx-7" edge="1">
          <mxGeometry width="50" height="50" relative="1" as="geometry">
            <mxPoint x="3.75" y="20" as="sourcePoint" />
            <mxPoint x="3.75" y="12.666666666666666" as="targetPoint" />
          </mxGeometry>
        </mxCell>
        <mxCell id="sUr1qKokxM94UTDC0hcx-14" value="" style="endArrow=open;html=1;rounded=0;strokeColor=light-dark(#707070, #FF0000);jumpSize=4;endSize=2;endFill=0;strokeWidth=0.5;" parent="sUr1qKokxM94UTDC0hcx-7" edge="1">
          <mxGeometry width="50" height="50" relative="1" as="geometry">
            <mxPoint y="20" as="sourcePoint" />
            <mxPoint y="14.666666666666666" as="targetPoint" />
          </mxGeometry>
        </mxCell>
        <mxCell id="sUr1qKokxM94UTDC0hcx-15" value="" style="group;strokeWidth=0;strokeColor=light-dark(#707070, #FF0000);" parent="sUr1qKokxM94UTDC0hcx-46" vertex="1" connectable="0">
          <mxGeometry x="33" width="14" height="30" as="geometry" />
        </mxCell>
        <mxCell id="sUr1qKokxM94UTDC0hcx-16" value="" style="endArrow=open;html=1;rounded=0;strokeColor=light-dark(#050505, #6FC76F);jumpSize=4;endSize=3;endFill=0;strokeWidth=1;" parent="sUr1qKokxM94UTDC0hcx-15" edge="1">
          <mxGeometry width="50" height="50" relative="1" as="geometry">
            <mxPoint x="6.873124999999991" y="30" as="sourcePoint" />
            <mxPoint x="6.873124999999991" as="targetPoint" />
          </mxGeometry>
        </mxCell>
        <mxCell id="sUr1qKokxM94UTDC0hcx-17" value="" style="endArrow=open;html=1;rounded=0;strokeColor=light-dark(#6a6868, #FF0000);jumpSize=4;endSize=2;endFill=0;strokeWidth=0.5;" parent="sUr1qKokxM94UTDC0hcx-15" edge="1">
          <mxGeometry width="50" height="50" relative="1" as="geometry">
            <mxPoint x="9.113124999999993" y="30" as="sourcePoint" />
            <mxPoint x="9.113124999999993" y="10" as="targetPoint" />
          </mxGeometry>
        </mxCell>
        <mxCell id="sUr1qKokxM94UTDC0hcx-18" value="" style="endArrow=open;html=1;rounded=0;strokeColor=light-dark(#6a6868, #FF0000);jumpSize=4;endSize=2;endFill=0;strokeWidth=0.5;" parent="sUr1qKokxM94UTDC0hcx-15" edge="1">
          <mxGeometry width="50" height="50" relative="1" as="geometry">
            <mxPoint x="4.738124999999993" y="30" as="sourcePoint" />
            <mxPoint x="4.738124999999993" y="10" as="targetPoint" />
          </mxGeometry>
        </mxCell>
        <mxCell id="sUr1qKokxM94UTDC0hcx-19" value="" style="endArrow=open;html=1;rounded=0;strokeColor=light-dark(#6a6868, #FF0000);jumpSize=4;endSize=2;endFill=0;strokeWidth=0.5;" parent="sUr1qKokxM94UTDC0hcx-15" edge="1">
          <mxGeometry width="50" height="50" relative="1" as="geometry">
            <mxPoint x="11.375" y="30" as="sourcePoint" />
            <mxPoint x="11.375" y="19" as="targetPoint" />
          </mxGeometry>
        </mxCell>
        <mxCell id="sUr1qKokxM94UTDC0hcx-20" value="" style="endArrow=open;html=1;rounded=0;strokeColor=light-dark(#6a6868, #FF0000);jumpSize=4;endSize=2;endFill=0;strokeWidth=0.5;" parent="sUr1qKokxM94UTDC0hcx-15" edge="1">
          <mxGeometry width="50" height="50" relative="1" as="geometry">
            <mxPoint x="14" y="30" as="sourcePoint" />
            <mxPoint x="14" y="22" as="targetPoint" />
          </mxGeometry>
        </mxCell>
        <mxCell id="sUr1qKokxM94UTDC0hcx-21" value="" style="endArrow=open;html=1;rounded=0;strokeColor=light-dark(#6a6868, #FF0000);jumpSize=4;endSize=2;endFill=0;strokeWidth=0.5;" parent="sUr1qKokxM94UTDC0hcx-15" edge="1">
          <mxGeometry width="50" height="50" relative="1" as="geometry">
            <mxPoint x="2.625" y="30" as="sourcePoint" />
            <mxPoint x="2.625" y="19" as="targetPoint" />
          </mxGeometry>
        </mxCell>
        <mxCell id="sUr1qKokxM94UTDC0hcx-22" value="" style="endArrow=open;html=1;rounded=0;strokeColor=light-dark(#6a6868, #FF0000);jumpSize=4;endSize=2;endFill=0;strokeWidth=0.5;" parent="sUr1qKokxM94UTDC0hcx-15" edge="1">
          <mxGeometry width="50" height="50" relative="1" as="geometry">
            <mxPoint y="30" as="sourcePoint" />
            <mxPoint y="22" as="targetPoint" />
          </mxGeometry>
        </mxCell>
        <mxCell id="SzlHStSngorwF01ydpwB-1" value="$$\omega$$" style="text;whiteSpace=wrap;align=center;verticalAlign=middle;fontSize=13;" parent="sUr1qKokxM94UTDC0hcx-46" vertex="1">
          <mxGeometry x="47" y="-14" width="30" height="20" as="geometry" />
        </mxCell>
        <mxCell id="SzlHStSngorwF01ydpwB-2" value="$$\omega$$" style="text;whiteSpace=wrap;align=center;verticalAlign=middle;fontSize=13;" parent="sUr1qKokxM94UTDC0hcx-46" vertex="1">
          <mxGeometry x="47" y="26" width="30" height="20" as="geometry" />
        </mxCell>
        <mxCell id="sUr1qKokxM94UTDC0hcx-47" value="" style="group" parent="1" vertex="1" connectable="0">
          <mxGeometry x="410" y="141" width="87" height="48" as="geometry" />
        </mxCell>
        <mxCell id="sUr1qKokxM94UTDC0hcx-5" value="" style="group;strokeWidth=2;" parent="sUr1qKokxM94UTDC0hcx-47" vertex="1" connectable="0">
          <mxGeometry x="22" width="32" height="30" as="geometry" />
        </mxCell>
        <mxCell id="sPPq37ELEt1q1rfpjTLL-43" value="" style="endArrow=open;html=1;rounded=0;strokeColor=light-dark(#0AC70A,#6FC76F);jumpSize=4;endSize=3;endFill=0;" parent="sUr1qKokxM94UTDC0hcx-5" edge="1">
          <mxGeometry width="50" height="50" relative="1" as="geometry">
            <mxPoint x="15.70999999999998" y="30" as="sourcePoint" />
            <mxPoint x="15.70999999999998" as="targetPoint" />
          </mxGeometry>
        </mxCell>
        <mxCell id="sPPq37ELEt1q1rfpjTLL-45" value="" style="endArrow=open;html=1;rounded=0;strokeColor=light-dark(#787878, #FF0000);jumpSize=4;endSize=3;endFill=0;strokeWidth=0.5;" parent="sUr1qKokxM94UTDC0hcx-5" edge="1">
          <mxGeometry width="50" height="50" relative="1" as="geometry">
            <mxPoint x="20.829999999999984" y="30" as="sourcePoint" />
            <mxPoint x="20.829999999999984" y="10" as="targetPoint" />
          </mxGeometry>
        </mxCell>
        <mxCell id="sPPq37ELEt1q1rfpjTLL-46" value="" style="endArrow=open;html=1;rounded=0;strokeColor=light-dark(#787878, #FF0000);jumpSize=4;endSize=3;endFill=0;strokeWidth=0.5;" parent="sUr1qKokxM94UTDC0hcx-5" edge="1">
          <mxGeometry width="50" height="50" relative="1" as="geometry">
            <mxPoint x="10.829999999999984" y="30" as="sourcePoint" />
            <mxPoint x="10.829999999999984" y="10" as="targetPoint" />
          </mxGeometry>
        </mxCell>
        <mxCell id="sUr1qKokxM94UTDC0hcx-1" value="" style="endArrow=open;html=1;rounded=0;strokeColor=light-dark(#787878, #FF0000);jumpSize=4;endSize=3;endFill=0;strokeWidth=0.5;" parent="sUr1qKokxM94UTDC0hcx-5" edge="1">
          <mxGeometry width="50" height="50" relative="1" as="geometry">
            <mxPoint x="26" y="30" as="sourcePoint" />
            <mxPoint x="26" y="19" as="targetPoint" />
          </mxGeometry>
        </mxCell>
        <mxCell id="sUr1qKokxM94UTDC0hcx-2" value="" style="endArrow=open;html=1;rounded=0;strokeColor=light-dark(#787878, #FF0000);jumpSize=4;endSize=3;endFill=0;strokeWidth=0.5;" parent="sUr1qKokxM94UTDC0hcx-5" edge="1">
          <mxGeometry width="50" height="50" relative="1" as="geometry">
            <mxPoint x="32" y="30" as="sourcePoint" />
            <mxPoint x="32" y="22" as="targetPoint" />
          </mxGeometry>
        </mxCell>
        <mxCell id="sUr1qKokxM94UTDC0hcx-3" value="" style="endArrow=open;html=1;rounded=0;strokeColor=light-dark(#787878, #FF0000);jumpSize=4;endSize=3;endFill=0;strokeWidth=0.5;" parent="sUr1qKokxM94UTDC0hcx-5" edge="1">
          <mxGeometry width="50" height="50" relative="1" as="geometry">
            <mxPoint x="6" y="30" as="sourcePoint" />
            <mxPoint x="6" y="19" as="targetPoint" />
          </mxGeometry>
        </mxCell>
        <mxCell id="sUr1qKokxM94UTDC0hcx-4" value="" style="endArrow=open;html=1;rounded=0;strokeColor=light-dark(#787878, #FF0000);jumpSize=4;endSize=3;endFill=0;strokeWidth=0.5;" parent="sUr1qKokxM94UTDC0hcx-5" edge="1">
          <mxGeometry width="50" height="50" relative="1" as="geometry">
            <mxPoint y="30" as="sourcePoint" />
            <mxPoint y="22" as="targetPoint" />
          </mxGeometry>
        </mxCell>
        <mxCell id="sUr1qKokxM94UTDC0hcx-6" value="" style="group" parent="sUr1qKokxM94UTDC0hcx-47" vertex="1" connectable="0">
          <mxGeometry y="4" width="77" height="30" as="geometry" />
        </mxCell>
        <mxCell id="sPPq37ELEt1q1rfpjTLL-35" value="" style="endArrow=classic;html=1;rounded=0;endSize=3;" parent="sUr1qKokxM94UTDC0hcx-6" edge="1">
          <mxGeometry width="50" height="50" relative="1" as="geometry">
            <mxPoint x="4.0333333333333545" y="30" as="sourcePoint" />
            <mxPoint x="4.0333333333333545" as="targetPoint" />
          </mxGeometry>
        </mxCell>
        <mxCell id="sPPq37ELEt1q1rfpjTLL-36" value="" style="endArrow=classic;html=1;rounded=0;endSize=3;" parent="sUr1qKokxM94UTDC0hcx-6" edge="1">
          <mxGeometry width="50" height="50" relative="1" as="geometry">
            <mxPoint y="26.5" as="sourcePoint" />
            <mxPoint x="77" y="26.5" as="targetPoint" />
          </mxGeometry>
        </mxCell>
        <mxCell id="sUr1qKokxM94UTDC0hcx-48" value="" style="endArrow=classic;html=1;rounded=0;" parent="1" edge="1">
          <mxGeometry width="50" height="50" relative="1" as="geometry">
            <mxPoint x="482" y="158" as="sourcePoint" />
            <mxPoint x="512" y="158.17" as="targetPoint" />
          </mxGeometry>
        </mxCell>
        <mxCell id="sUr1qKokxM94UTDC0hcx-50" value="" style="endArrow=classic;html=1;rounded=0;" parent="1" edge="1">
          <mxGeometry width="50" height="50" relative="1" as="geometry">
            <mxPoint x="482" y="196" as="sourcePoint" />
            <mxPoint x="512" y="196.17" as="targetPoint" />
          </mxGeometry>
        </mxCell>
        <mxCell id="sUr1qKokxM94UTDC0hcx-51" value="" style="endArrow=classic;html=1;rounded=0;" parent="1" edge="1">
          <mxGeometry width="50" height="50" relative="1" as="geometry">
            <mxPoint x="482" y="238" as="sourcePoint" />
            <mxPoint x="512" y="238.17" as="targetPoint" />
          </mxGeometry>
        </mxCell>
        <mxCell id="sUr1qKokxM94UTDC0hcx-52" value="&lt;div style=&quot;line-height: 90%;&quot;&gt;&lt;b&gt;Smaller &#39;M&#39; :&lt;/b&gt;&lt;/div&gt;&lt;div style=&quot;line-height: 100%;&quot;&gt;&lt;ul style=&quot;margin-left: 0px; margin-bottom: 6px; padding-left: 12px; margin-top: 0px;&quot;&gt;&lt;li&gt;&lt;span style=&quot;background-color: transparent;&quot;&gt;&lt;font style=&quot;color: light-dark(rgb(120, 120, 120), rgb(237, 237, 237)); font-size: 13px;&quot;&gt;no randomness&lt;/font&gt;&lt;/span&gt;&lt;/li&gt;&lt;li&gt;&lt;font style=&quot;color: light-dark(rgb(120, 120, 120), rgb(237, 237, 237)); font-size: 13px;&quot;&gt;&lt;span style=&quot;background-color: transparent;&quot;&gt;&lt;font style=&quot;&quot;&gt;predicts statistical bia&lt;/font&gt;&lt;/span&gt;&lt;span style=&quot;background-color: transparent;&quot;&gt;s&lt;/span&gt;&lt;/font&gt;&lt;/li&gt;&lt;/ul&gt;&lt;/div&gt;" style="text;whiteSpace=wrap;html=1;align=left;verticalAlign=middle;fontSize=11;spacing=0;fontFamily=Arial Narrow;" parent="1" vertex="1">
          <mxGeometry x="519" y="144" width="121" height="20" as="geometry" />
        </mxCell>
        <mxCell id="sUr1qKokxM94UTDC0hcx-53" value="&lt;div style=&quot;line-height: 100%;&quot;&gt;&lt;font style=&quot;font-size: 14px;&quot;&gt;Limited tones prevents near-uniform distribution&lt;/font&gt;&lt;/div&gt;" style="text;whiteSpace=wrap;html=1;align=left;verticalAlign=middle;fontSize=11;spacing=0;fontFamily=Arial Narrow;" parent="1" vertex="1">
          <mxGeometry x="518" y="179" width="118" height="20" as="geometry" />
        </mxCell>
        <mxCell id="sUr1qKokxM94UTDC0hcx-65" value="" style="group" parent="1" vertex="1" connectable="0">
          <mxGeometry x="295" y="146" width="80" height="110" as="geometry" />
        </mxCell>
        <mxCell id="sPPq37ELEt1q1rfpjTLL-25" value="&lt;font face=&quot;Arial Narrow&quot; style=&quot;font-size: 22px;&quot;&gt;x(n)&lt;/font&gt;&lt;div&gt;&lt;span style=&quot;font-size: 22px;&quot;&gt;&lt;font face=&quot;Arial Narrow&quot;&gt;&lt;br&gt;&lt;/font&gt;&lt;/span&gt;&lt;div&gt;&lt;font face=&quot;Arial Narrow&quot; style=&quot;font-size: 22px;&quot;&gt;&lt;br&gt;&lt;/font&gt;&lt;/div&gt;&lt;div&gt;&lt;font face=&quot;Arial Narrow&quot; style=&quot;font-size: 22px;&quot;&gt;x(n+1)&lt;/font&gt;&lt;/div&gt;&lt;/div&gt;" style="rounded=0;whiteSpace=wrap;html=1;container=0;" parent="sUr1qKokxM94UTDC0hcx-65" vertex="1">
          <mxGeometry width="80" height="110" as="geometry" />
        </mxCell>
        <mxCell id="sPPq37ELEt1q1rfpjTLL-6" value="a, b, &amp;amp; M" style="rounded=0;whiteSpace=wrap;strokeColor=#36393d;opacity=0;labelBorderColor=none;fillColor=none;fontFamily=Arial Narrow;fontSize=20;html=1;spacing=2;fontColor=light-dark(#787878, #ededed);container=0;fontStyle=3" parent="sUr1qKokxM94UTDC0hcx-65" vertex="1">
          <mxGeometry y="20" width="80" height="38" as="geometry" />
        </mxCell>
        <mxCell id="sUr1qKokxM94UTDC0hcx-150" value="$$&#xa;\Downarrow&#xa;$$" style="text;whiteSpace=wrap;fontFamily=Arial Narrow;fontSize=26;align=center;verticalAlign=middle;" parent="sUr1qKokxM94UTDC0hcx-65" vertex="1">
          <mxGeometry x="26" y="49" width="30" height="38" as="geometry" />
        </mxCell>
        <mxCell id="sUr1qKokxM94UTDC0hcx-81" value="&lt;div style=&quot;line-height: 100%;&quot;&gt;&lt;b&gt;Linear Congruence Generator (LCG)&lt;/b&gt;&lt;/div&gt;" style="text;whiteSpace=wrap;html=1;align=center;verticalAlign=middle;fontSize=18;spacing=0;fontFamily=Arial Narrow;" parent="1" vertex="1">
          <mxGeometry x="181" y="85" width="470" height="20" as="geometry" />
        </mxCell>
        <mxCell id="sUr1qKokxM94UTDC0hcx-95" value="&lt;span style=&quot;color: rgb(255, 255, 255); font-family: &amp;quot;Arial Narrow&amp;quot;; font-size: 15px;&quot;&gt;&amp;nbsp;generator&amp;nbsp;&lt;/span&gt;" style="rounded=0;whiteSpace=wrap;html=1;fillStyle=solid;fillColor=light-dark(#707070, #c1c1c1);strokeColor=none;" parent="1" vertex="1">
          <mxGeometry x="294" y="109" width="80" height="21" as="geometry" />
        </mxCell>
        <mxCell id="sUr1qKokxM94UTDC0hcx-96" value="&lt;span style=&quot;font-family: &amp;quot;Arial Narrow&amp;quot;; font-size: 15px; line-height: 100%;&quot;&gt;&lt;font style=&quot;color: light-dark(rgb(255, 255, 255), rgb(237, 237, 237)); line-height: 80%;&quot;&gt;frequency profile&lt;/font&gt;&lt;/span&gt;" style="rounded=0;whiteSpace=wrap;html=1;fillStyle=solid;fillColor=light-dark(#707070, #c1c1c1);strokeColor=none;" parent="1" vertex="1">
          <mxGeometry x="389" y="109" width="111" height="21" as="geometry" />
        </mxCell>
        <mxCell id="sUr1qKokxM94UTDC0hcx-97" value="&lt;span style=&quot;font-family: &amp;quot;Arial Narrow&amp;quot;; font-size: 16px;&quot;&gt;&lt;font style=&quot;color: light-dark(rgb(255, 255, 255), rgb(237, 237, 237));&quot;&gt;probability profile&lt;/font&gt;&lt;/span&gt;" style="rounded=0;whiteSpace=wrap;html=1;fillStyle=solid;fillColor=light-dark(#707070, #c1c1c1);strokeColor=none;" parent="1" vertex="1">
          <mxGeometry x="526" y="109" width="111" height="21" as="geometry" />
        </mxCell>
        <mxCell id="sUr1qKokxM94UTDC0hcx-107" value="&lt;div style=&quot;line-height: 100%;&quot;&gt;&lt;b&gt;Quantum Random Generator&lt;/b&gt;&lt;/div&gt;" style="text;whiteSpace=wrap;html=1;align=center;verticalAlign=middle;fontSize=18;spacing=0;fontFamily=Arial Narrow;" parent="1" vertex="1">
          <mxGeometry x="191" y="270" width="460" height="20" as="geometry" />
        </mxCell>
        <mxCell id="sUr1qKokxM94UTDC0hcx-125" style="edgeStyle=orthogonalEdgeStyle;rounded=0;orthogonalLoop=1;jettySize=auto;html=1;entryX=0;entryY=0.5;entryDx=0;entryDy=0;" parent="1" source="sUr1qKokxM94UTDC0hcx-108" target="sUr1qKokxM94UTDC0hcx-116" edge="1">
          <mxGeometry relative="1" as="geometry" />
        </mxCell>
        <mxCell id="sUr1qKokxM94UTDC0hcx-108" value="" style="rounded=0;whiteSpace=wrap;html=1;container=0;fillColor=none;" parent="1" vertex="1">
          <mxGeometry x="184" y="293" width="110" height="123" as="geometry" />
        </mxCell>
        <mxCell id="sUr1qKokxM94UTDC0hcx-115" value="&lt;font face=&quot;Arial Narrow&quot; style=&quot;color: light-dark(rgb(255, 255, 255), rgb(237, 237, 237)); font-size: 14px; line-height: 100%;&quot;&gt;quantum state preparation&lt;/font&gt;" style="rounded=0;whiteSpace=wrap;html=1;fillColor=light-dark(#707070, #ededed);strokeColor=none;" parent="1" vertex="1">
          <mxGeometry x="189" y="296" width="99" height="40" as="geometry" />
        </mxCell>
        <mxCell id="sUr1qKokxM94UTDC0hcx-126" style="edgeStyle=orthogonalEdgeStyle;rounded=0;orthogonalLoop=1;jettySize=auto;html=1;entryX=0;entryY=0.5;entryDx=0;entryDy=0;" parent="1" source="sUr1qKokxM94UTDC0hcx-116" target="sUr1qKokxM94UTDC0hcx-118" edge="1">
          <mxGeometry relative="1" as="geometry" />
        </mxCell>
        <mxCell id="sUr1qKokxM94UTDC0hcx-116" value="" style="rounded=0;whiteSpace=wrap;html=1;container=0;fillColor=none;" parent="1" vertex="1">
          <mxGeometry x="370" y="293" width="100" height="123" as="geometry" />
        </mxCell>
        <mxCell id="sUr1qKokxM94UTDC0hcx-117" value="&lt;font face=&quot;Arial Narrow&quot; style=&quot;color: light-dark(rgb(255, 255, 255), rgb(237, 237, 237)); font-size: 14px; line-height: 100%;&quot;&gt;quantum measurement&lt;/font&gt;" style="rounded=0;whiteSpace=wrap;html=1;fillColor=light-dark(#707070, #ededed);strokeColor=none;" parent="1" vertex="1">
          <mxGeometry x="376" y="296" width="88" height="40" as="geometry" />
        </mxCell>
        <mxCell id="sUr1qKokxM94UTDC0hcx-118" value="" style="rounded=0;whiteSpace=wrap;html=1;container=0;fillColor=none;" parent="1" vertex="1">
          <mxGeometry x="551" y="293" width="100" height="123" as="geometry" />
        </mxCell>
        <mxCell id="sUr1qKokxM94UTDC0hcx-119" value="&lt;font face=&quot;Arial Narrow&quot; style=&quot;color: light-dark(rgb(255, 255, 255), rgb(237, 237, 237)); font-size: 14px; line-height: 100%;&quot;&gt;random bit stream&lt;/font&gt;" style="rounded=0;whiteSpace=wrap;html=1;fillColor=light-dark(#707070, #ededed);strokeColor=none;" parent="1" vertex="1">
          <mxGeometry x="557" y="296" width="89" height="40" as="geometry" />
        </mxCell>
        <mxCell id="sUr1qKokxM94UTDC0hcx-122" value="&lt;div style=&quot;line-height: 100%;&quot;&gt;&lt;ul style=&quot;margin-left: 0px; margin-bottom: 6px; padding-left: 12px; margin-top: 0px;&quot;&gt;&lt;li style=&quot;&quot;&gt;&lt;font style=&quot;font-size: 13px;&quot; color=&quot;#787878&quot;&gt;true random output&lt;/font&gt;&lt;/li&gt;&lt;li style=&quot;&quot;&gt;&lt;font style=&quot;font-size: 13px; line-height: 110%;&quot; color=&quot;#787878&quot;&gt;uniform distribution&lt;/font&gt;&lt;/li&gt;&lt;li style=&quot;&quot;&gt;&lt;font style=&quot;font-size: 13px;&quot; color=&quot;#787878&quot;&gt;no seed&lt;/font&gt;&lt;/li&gt;&lt;li style=&quot;&quot;&gt;&lt;font style=&quot;font-size: 13px;&quot; color=&quot;#787878&quot;&gt;not deterministic&lt;/font&gt;&lt;/li&gt;&lt;/ul&gt;&lt;/div&gt;" style="text;whiteSpace=wrap;html=1;align=left;verticalAlign=middle;fontSize=11;spacing=0;fontFamily=Arial Narrow;" parent="1" vertex="1">
          <mxGeometry x="553" y="352" width="98" height="50" as="geometry" />
        </mxCell>
        <mxCell id="sUr1qKokxM94UTDC0hcx-123" value="&lt;div style=&quot;line-height: 90%;&quot;&gt;&lt;b&gt;&lt;font style=&quot;font-size: 14px; line-height: 100%;&quot;&gt;superposed qubit&lt;/font&gt;&lt;/b&gt;&lt;/div&gt;" style="text;whiteSpace=wrap;html=1;align=center;verticalAlign=middle;fontSize=11;spacing=0;fontFamily=Arial Narrow;" parent="1" vertex="1">
          <mxGeometry x="287" y="327.5" width="89" height="20" as="geometry" />
        </mxCell>
        <mxCell id="sUr1qKokxM94UTDC0hcx-127" value="&lt;div style=&quot;line-height: 90%;&quot;&gt;&lt;b&gt;&lt;font style=&quot;line-height: 100%; font-size: 14px;&quot;&gt;measurement outcome&lt;/font&gt;&lt;/b&gt;&lt;/div&gt;" style="text;whiteSpace=wrap;html=1;align=center;verticalAlign=middle;fontSize=11;spacing=0;fontFamily=Arial Narrow;" parent="1" vertex="1">
          <mxGeometry x="466" y="329" width="89" height="20" as="geometry" />
        </mxCell>
        <mxCell id="sUr1qKokxM94UTDC0hcx-128" value="&lt;span style=&quot;color: rgb(0, 0, 0); font-family: &amp;quot;Arial Narrow&amp;quot;; font-style: normal; font-variant-ligatures: normal; font-variant-caps: normal; font-weight: 400; letter-spacing: normal; orphans: 2; text-indent: 0px; text-transform: none; widows: 2; word-spacing: 0px; -webkit-text-stroke-width: 0px; white-space: normal; text-decoration-thickness: initial; text-decoration-style: initial; text-decoration-color: initial; float: none; line-height: 100%; display: inline !important;&quot;&gt;&lt;font style=&quot;font-size: 15px;&quot;&gt;determines sequence start&lt;/font&gt;&lt;/span&gt;" style="text;whiteSpace=wrap;html=1;align=center;" parent="1" vertex="1">
          <mxGeometry x="185" y="219" width="88" height="40" as="geometry" />
        </mxCell>
        <mxCell id="sUr1qKokxM94UTDC0hcx-101" value="" style="group" parent="1" vertex="1" connectable="0">
          <mxGeometry x="560" y="187" width="81" height="38" as="geometry" />
        </mxCell>
        <mxCell id="sUr1qKokxM94UTDC0hcx-74" value="&lt;span style=&quot;color: rgb(0, 0, 0); font-style: normal; font-variant-ligatures: normal; font-variant-caps: normal; font-weight: 400; letter-spacing: normal; orphans: 2; text-indent: 0px; text-transform: none; widows: 2; word-spacing: 0px; -webkit-text-stroke-width: 0px; white-space: normal; text-decoration-thickness: initial; text-decoration-style: initial; text-decoration-color: initial; float: none; display: inline !important;&quot;&gt;&lt;font style=&quot;font-size: 8px;&quot;&gt;P&lt;sub style=&quot;&quot;&gt;x&lt;/sub&gt;(x)&lt;/font&gt;&lt;/span&gt;" style="text;whiteSpace=wrap;html=1;align=center;verticalAlign=middle;fontSize=11;fontFamily=Arial Narrow;" parent="sUr1qKokxM94UTDC0hcx-101" vertex="1">
          <mxGeometry x="22" y="-7" width="34" height="15.217391304347828" as="geometry" />
        </mxCell>
        <mxCell id="sUr1qKokxM94UTDC0hcx-76" value="&lt;span style=&quot;color: rgb(0, 0, 0); font-family: &amp;quot;Arial Narrow&amp;quot;; font-variant-ligatures: normal; font-variant-caps: normal; font-weight: 400; letter-spacing: normal; orphans: 2; text-indent: 0px; text-transform: none; widows: 2; word-spacing: 0px; -webkit-text-stroke-width: 0px; white-space: normal; text-decoration-thickness: initial; text-decoration-style: initial; text-decoration-color: initial; float: none; display: inline !important;&quot;&gt;&lt;i style=&quot;&quot;&gt;&lt;font style=&quot;font-size: 8px;&quot;&gt;x&lt;/font&gt;&lt;/i&gt;&lt;/span&gt;" style="text;whiteSpace=wrap;html=1;align=center;verticalAlign=middle;" parent="sUr1qKokxM94UTDC0hcx-101" vertex="1">
          <mxGeometry x="71" y="17.782608695652172" width="10" height="15.217391304347828" as="geometry" />
        </mxCell>
        <mxCell id="sUr1qKokxM94UTDC0hcx-64" value="" style="group" parent="1" vertex="1" connectable="0">
          <mxGeometry x="584" y="185" width="70" height="28.15217391304348" as="geometry" />
        </mxCell>
        <mxCell id="sUr1qKokxM94UTDC0hcx-55" value="" style="endArrow=classic;html=1;rounded=0;endSize=3;" parent="sUr1qKokxM94UTDC0hcx-64" edge="1">
          <mxGeometry width="50" height="50" relative="1" as="geometry">
            <mxPoint x="3.666666666666691" y="28.15217391304348" as="sourcePoint" />
            <mxPoint x="3.666666666666691" as="targetPoint" />
          </mxGeometry>
        </mxCell>
        <mxCell id="sUr1qKokxM94UTDC0hcx-56" value="" style="endArrow=classic;html=1;rounded=0;endSize=3;" parent="sUr1qKokxM94UTDC0hcx-64" edge="1">
          <mxGeometry width="50" height="50" relative="1" as="geometry">
            <mxPoint y="25.108695652173914" as="sourcePoint" />
            <mxPoint x="60.27777777777777" y="25.108695652173914" as="targetPoint" />
          </mxGeometry>
        </mxCell>
        <mxCell id="sUr1qKokxM94UTDC0hcx-72" value="" style="rounded=0;whiteSpace=wrap;html=1;fillColor=light-dark(#e6e6e6, #ededed);strokeWidth=1;" parent="1" vertex="1">
          <mxGeometry x="595.875" y="194.8913043478261" width="34.875" height="15.217391304347828" as="geometry" />
        </mxCell>
        <mxCell id="sUr1qKokxM94UTDC0hcx-85" value="&lt;div style=&quot;line-height: 90%;&quot;&gt;&lt;b style=&quot;background-color: transparent; color: light-dark(rgb(0, 0, 0), rgb(255, 255, 255)); line-height: 100%;&quot;&gt;Extremely larger &#39;M&#39;&lt;/b&gt;&lt;b&gt;&amp;nbsp;:&lt;/b&gt;&lt;/div&gt;&lt;div style=&quot;line-height: 100%;&quot;&gt;&lt;ul style=&quot;margin-left: 0px; margin-bottom: 6px; padding-left: 12px; margin-top: 0px;&quot;&gt;&lt;li&gt;&lt;font color=&quot;#787878&quot;&gt;yields near uniform distribution&lt;/font&gt;&lt;/li&gt;&lt;li&gt;&lt;font color=&quot;#787878&quot;&gt;predictable despite statistical randomness&lt;/font&gt;&lt;/li&gt;&lt;/ul&gt;&lt;/div&gt;" style="text;whiteSpace=wrap;html=1;align=left;verticalAlign=middle;fontSize=11;spacing=0;fontFamily=Arial Narrow;" parent="1" vertex="1">
          <mxGeometry x="517" y="225" width="136" height="30" as="geometry" />
        </mxCell>
        <mxCell id="sUr1qKokxM94UTDC0hcx-100" value="" style="curved=1;endArrow=classic;html=1;rounded=0;dashed=1;entryX=0.726;entryY=0.096;entryDx=0;entryDy=0;entryPerimeter=0;" parent="1" target="sUr1qKokxM94UTDC0hcx-85" edge="1">
          <mxGeometry width="50" height="50" relative="1" as="geometry">
            <mxPoint x="620" y="200" as="sourcePoint" />
            <mxPoint x="615" y="225.23913043478262" as="targetPoint" />
            <Array as="points">
              <mxPoint x="620" y="200" />
              <mxPoint x="614" y="208" />
              <mxPoint x="624" y="215.6086956521739" />
            </Array>
          </mxGeometry>
        </mxCell>
        <mxCell id="sUr1qKokxM94UTDC0hcx-136" value="&lt;div style=&quot;line-height: 100%;&quot;&gt;&lt;font style=&quot;font-size: 10px;&quot;&gt;&lt;b style=&quot;line-height: 100%;&quot;&gt;$$|\psi&amp;gt; = \frac{1}{\sqrt{2}}(|0\rangle + |1\rangle)$$&lt;/b&gt;&lt;/font&gt;&lt;/div&gt;" style="text;whiteSpace=wrap;align=center;verticalAlign=middle;spacing=-1;fontFamily=Arial Narrow;fontSize=11;html=1;" parent="1" vertex="1">
          <mxGeometry x="200" y="332.5" width="81" height="40" as="geometry" />
        </mxCell>
        <mxCell id="sUr1qKokxM94UTDC0hcx-137" value="$$\rightarrow |0\rangle or  |1\rangle$$" style="text;whiteSpace=wrap;fontFamily=Arial Narrow;align=center;verticalAlign=middle;" parent="1" vertex="1">
          <mxGeometry x="195" y="390" width="80" height="20" as="geometry" />
        </mxCell>
        <mxCell id="sUr1qKokxM94UTDC0hcx-139" value="&lt;span style=&quot;color: rgb(0, 0, 0); font-family: &amp;quot;Arial Narrow&amp;quot;; font-size: 16px; font-style: normal; font-variant-ligatures: normal; font-variant-caps: normal; font-weight: 400; letter-spacing: normal; orphans: 2; text-indent: 0px; text-transform: none; widows: 2; word-spacing: 0px; -webkit-text-stroke-width: 0px; white-space: normal; text-decoration-thickness: initial; text-decoration-style: initial; text-decoration-color: initial; float: none; line-height: 100%; display: inline !important;&quot;&gt;equiprobable&lt;/span&gt;" style="text;whiteSpace=wrap;html=1;align=center;" parent="1" vertex="1">
          <mxGeometry x="193.5" y="363" width="90" height="30" as="geometry" />
        </mxCell>
        <mxCell id="sUr1qKokxM94UTDC0hcx-140" value="$$\rightarrow |0\rangle or  |1\rangle$$" style="text;whiteSpace=wrap;fontFamily=Arial Narrow;align=center;verticalAlign=middle;" parent="1" vertex="1">
          <mxGeometry x="379" y="363" width="80" height="20" as="geometry" />
        </mxCell>
        <mxCell id="sUr1qKokxM94UTDC0hcx-141" value="&lt;span style=&quot;color: rgb(0, 0, 0); font-family: &amp;quot;Arial Narrow&amp;quot;; font-size: 16px; font-style: normal; font-variant-ligatures: normal; font-variant-caps: normal; font-weight: 400; letter-spacing: normal; orphans: 2; text-indent: 0px; text-transform: none; widows: 2; word-spacing: 0px; -webkit-text-stroke-width: 0px; white-space: normal; text-decoration-thickness: initial; text-decoration-style: initial; text-decoration-color: initial; float: none; line-height: 100%; display: inline !important;&quot;&gt;collapse&lt;/span&gt;" style="text;whiteSpace=wrap;html=1;align=center;" parent="1" vertex="1">
          <mxGeometry x="374" y="333" width="90" height="30" as="geometry" />
        </mxCell>
        <mxCell id="sUr1qKokxM94UTDC0hcx-142" value="&lt;font style=&quot;font-size: 9px;&quot;&gt;$$P(|0\rangle)=&amp;nbsp; P(|1\rangle)=0.5$$&lt;/font&gt;" style="text;whiteSpace=wrap;verticalAlign=middle;align=center;fontFamily=Arial Narrow;fontSize=11;html=1;" parent="1" vertex="1">
          <mxGeometry x="379" y="376" width="80" height="40" as="geometry" />
        </mxCell>
        <mxCell id="sUr1qKokxM94UTDC0hcx-144" value="" style="curved=1;endArrow=classic;html=1;rounded=0;dashed=1;" parent="1" edge="1">
          <mxGeometry width="50" height="50" relative="1" as="geometry">
            <mxPoint x="217" y="228" as="sourcePoint" />
            <mxPoint x="236" y="200" as="targetPoint" />
            <Array as="points">
              <mxPoint x="227" y="216.60869565217388" />
              <mxPoint x="217" y="209" />
            </Array>
          </mxGeometry>
        </mxCell>
        <mxCell id="sUr1qKokxM94UTDC0hcx-145" value="&lt;font face=&quot;Arial Narrow&quot; style=&quot;line-height: 100%; font-size: 11px;&quot;&gt;$$&lt;br&gt;\textbf{N-qubit case:} \\[2pt]&lt;br&gt;\psi_N = \frac{1}{\sqrt{N}} \sum_{i=0}^{N-1} |i\rangle \\[2pt]&lt;br&gt;\text{Uniform state distribution } \rightarrow \text{ N-bit random output}&lt;br&gt;$$&lt;/font&gt;" style="text;whiteSpace=wrap;fontFamily=Arial Narrow;html=1;align=center;imageWidth=21;arcSize=10;" parent="1" vertex="1">
          <mxGeometry x="188" y="393" width="460" height="50" as="geometry" />
        </mxCell>
        <mxCell id="sUr1qKokxM94UTDC0hcx-147" value="&lt;span style=&quot;color: rgb(255, 255, 255); font-family: &amp;quot;Arial Narrow&amp;quot;; font-size: 15px;&quot;&gt;initial seed&lt;/span&gt;" style="rounded=0;whiteSpace=wrap;html=1;fillStyle=solid;fillColor=light-dark(#707070, #c1c1c1);strokeColor=none;" parent="1" vertex="1">
          <mxGeometry x="188" y="110" width="80" height="21" as="geometry" />
        </mxCell>
        <mxCell id="sUr1qKokxM94UTDC0hcx-154" style="edgeStyle=orthogonalEdgeStyle;rounded=0;orthogonalLoop=1;jettySize=auto;html=1;entryX=0.007;entryY=0.532;entryDx=0;entryDy=0;entryPerimeter=0;" parent="1" source="WS8m4a5kr1yiGVBsjtW7-3" target="sUr1qKokxM94UTDC0hcx-99" edge="1">
          <mxGeometry relative="1" as="geometry" />
        </mxCell>
        <mxCell id="zVvTvGYJ8gX_kIcB1nUC-1" value="&lt;b style=&quot;forced-color-adjust: none; color: rgb(0, 0, 0); font-family: &amp;quot;Arial Narrow&amp;quot;; font-size: 18px; font-style: normal; font-variant-ligatures: normal; font-variant-caps: normal; letter-spacing: normal; orphans: 2; text-align: center; text-indent: 0px; text-transform: none; widows: 2; word-spacing: 0px; -webkit-text-stroke-width: 0px; white-space: normal; background-color: rgb(236, 236, 236); text-decoration-thickness: initial; text-decoration-style: initial; text-decoration-color: initial;&quot;&gt;Quantum Entangled?&lt;/b&gt;" style="text;whiteSpace=wrap;html=1;" vertex="1" parent="1">
          <mxGeometry x="420" y="510" width="160" height="40" as="geometry" />
        </mxCell>
      </root>
    </mxGraphModel>
  </diagram>
  <diagram id="8tZSlesYW8j3GcmvkzeX" name="Fig2">
    <mxGraphModel dx="1042" dy="527" grid="1" gridSize="10" guides="1" tooltips="1" connect="1" arrows="1" fold="1" page="1" pageScale="1" pageWidth="850" pageHeight="1100" math="1" shadow="0">
      <root>
        <mxCell id="0" />
        <mxCell id="1" parent="0" />
      </root>
    </mxGraphModel>
  </diagram>
</mxfile>
